HIERARCHY
ROOT Hips
{
	OFFSET 0.000000 0.000000 0.000000
	CHANNELS 6 Xposition Yposition Zposition Zrotation Yrotation Xrotation 
	JOINT LHipJoint
	{
		OFFSET 0.000000 0.000000 0.000000
		CHANNELS 3 Zrotation Yrotation Xrotation
		JOINT LeftUpLeg
		{
			OFFSET 1.363060 -1.794630 0.839290
			CHANNELS 3 Zrotation Yrotation Xrotation
			JOINT LeftLeg
			{
				OFFSET 2.448110 -6.726130 0.000000
				CHANNELS 3 Zrotation Yrotation Xrotation
				JOINT LeftFoot
				{
					OFFSET 2.562200 -7.039590 0.000000
					CHANNELS 3 Zrotation Yrotation Xrotation
					JOINT LeftToeBase
					{
						OFFSET 0.157640 -0.433110 2.322550
						CHANNELS 3 Zrotation Yrotation Xrotation
						End Site
						{
							OFFSET 0.000000 0.000000 0.000000
						}
					}
				}
			}
		}
	}
	JOINT RHipJoint
	{
		OFFSET 0.000000 0.000000 0.000000
		CHANNELS 3 Zrotation Yrotation Xrotation
		JOINT RightUpLeg
		{
			OFFSET -1.305520 -1.794630 0.839290
			CHANNELS 3 Zrotation Yrotation Xrotation
			JOINT RightLeg
			{
				OFFSET -2.542530 -6.985550 0.000000
				CHANNELS 3 Zrotation Yrotation Xrotation
				JOINT RightFoot
				{
					OFFSET -2.568260 -7.056230 0.000000
					CHANNELS 3 Zrotation Yrotation Xrotation
					JOINT RightToeBase
					{
						OFFSET -0.164730 -0.452590 2.363150
						CHANNELS 3 Zrotation Yrotation Xrotation
						End Site
						{
							OFFSET 0.000000 0.000000 0.000000
						}
					}
				}
			}
		}
	}
	JOINT LowerBack
	{
		OFFSET 0.000000 0.000000 0.000000
		CHANNELS 3 Zrotation Yrotation Xrotation
		JOINT Spine
		{
			OFFSET 0.028270 2.035590 -0.193380
			CHANNELS 3 Zrotation Yrotation Xrotation
			JOINT Spine1
			{
				OFFSET 0.056720 2.048850 -0.042750
				CHANNELS 3 Zrotation Yrotation Xrotation
				JOINT Neck
				{
					OFFSET 0.000000 0.000000 0.000000
					CHANNELS 3 Zrotation Yrotation Xrotation
					JOINT Neck1
					{
						OFFSET -0.054170 1.746240 0.172020
						CHANNELS 3 Zrotation Yrotation Xrotation
						JOINT Head
						{
							OFFSET 0.104070 1.761360 -0.123970
							CHANNELS 3 Zrotation Yrotation Xrotation
							End Site
							{
								OFFSET 0.000000 0.000000 0.000000
							}
						}
					}
				}
				JOINT LeftShoulder
				{
					OFFSET 0.000000 0.000000 0.000000
					CHANNELS 3 Zrotation Yrotation Xrotation
					JOINT LeftArm
					{
						OFFSET 3.362410 1.200890 -0.311210
						CHANNELS 3 Zrotation Yrotation Xrotation
						JOINT LeftForeArm
						{
							OFFSET 4.983000 -0.000000 -0.000000
							CHANNELS 3 Zrotation Yrotation Xrotation
							JOINT LeftHand
							{
								OFFSET 3.483560 -0.000000 -0.000000
								CHANNELS 3 Zrotation Yrotation Xrotation
								JOINT LeftFingerBase
								{
									OFFSET 0.000000 0.000000 0.000000
									CHANNELS 3 Zrotation Yrotation Xrotation
									JOINT LeftHandIndex1
									{
										OFFSET 0.715260 -0.000000 -0.000000
										CHANNELS 3 Zrotation Yrotation Xrotation
										End Site
										{
											OFFSET 0.000000 0.000000 0.000000
										}
									}
								}
								JOINT LThumb
								{
									OFFSET 0.000000 0.000000 0.000000
									CHANNELS 3 Zrotation Yrotation Xrotation
									End Site
									{
										OFFSET 0.000000 0.000000 0.000000
									}
								}
							}
						}
					}
				}
				JOINT RightShoulder
				{
					OFFSET 0.000000 0.000000 0.000000
					CHANNELS 3 Zrotation Yrotation Xrotation
					JOINT RightArm
					{
						OFFSET -3.136600 1.374050 -0.404650
						CHANNELS 3 Zrotation Yrotation Xrotation
						JOINT RightForeArm
						{
							OFFSET -5.241900 -0.000000 -0.000000
							CHANNELS 3 Zrotation Yrotation Xrotation
							JOINT RightHand
							{
								OFFSET -3.444170 -0.000000 -0.000000
								CHANNELS 3 Zrotation Yrotation Xrotation
								JOINT RightFingerBase
								{
									OFFSET 0.000000 0.000000 0.000000
									CHANNELS 3 Zrotation Yrotation Xrotation
									JOINT RightHandIndex1
									{
										OFFSET -0.622530 -0.000000 -0.000000
										CHANNELS 3 Zrotation Yrotation Xrotation
										End Site
										{
											OFFSET 0.000000 0.000000 0.000000
										}
									}
								}
								JOINT RThumb
								{
									OFFSET 0.000000 0.000000 0.000000
									CHANNELS 3 Zrotation Yrotation Xrotation
									End Site
									{
										OFFSET 0.000000 0.000000 0.000000
									}
								}
							}
						}
					}
				}
			}
		}
	}
}
MOTION
Frames: 4
Frame Time: 0.008333
17.185544 17.725388 -26.736866 4.827566 -43.498480 1.313341 1.081794 1.120026 1.123793 -16.554477 -9.644391 -13.209907 -0.573892 9.808843 27.013691 -1.846098 8.625651 4.508294 0.001900 -0.280200 -0.769900 -4.914736 -1.804360 0.279028 16.120928 17.437049 -8.192963 -0.414782 -9.799768 27.996370 4.786410 -17.216595 -14.645173 -0.257200 -3.262900 9.011400 -3.046019 1.896666 2.917749 0.809093 1.700722 -0.596842 0.653319 1.546177 -9.939496 -2.172921 5.584110 -4.740925 1.726090 7.078813 9.039670 -2.586400 3.676100 3.872500 -6.693182 -5.449963 -1.054767 -79.992411 3.149210 22.205527 13.431140 -17.805483 -3.639398 -1.357008 1.278059 -16.016712 12.546016 -21.747433 -5.423300 -7.125000 0.000000 0.000000 -9.697200 6.373100 8.689300 9.730303 6.327532 -0.840281 65.728818 -16.392386 45.984255 -21.910217 28.560606 -8.582084 1.310196 4.254012 -3.765259 -14.075588 -24.434520 7.636400 7.125000 0.000000 0.000000 16.909800 -58.605200 -5.729800 
17.187530 17.721312 -26.728713 4.478246 -43.413176 1.535395 1.102478 1.130412 1.116001 -16.334171 -9.699900 -13.209051 -0.543621 9.854535 27.151248 -1.849781 8.613870 4.126906 0.015000 -0.791800 -2.176100 -4.906420 -1.818827 0.272301 16.360948 17.062584 -8.151048 -0.387279 -9.738330 27.834866 4.809528 -17.231875 -14.420475 -0.185900 -2.776800 7.657900 -2.705097 1.860749 2.704958 0.813277 1.691253 -0.489482 0.502731 1.499156 -9.551853 -2.199674 5.575724 -4.967639 1.891813 7.071234 9.000434 -2.509100 3.672300 3.878500 -6.688177 -5.476549 -1.036737 -79.970908 3.001029 22.145890 13.488969 -17.875684 -3.670963 -1.335098 1.275858 -15.937466 12.447573 -21.756999 -5.375300 -7.125000 0.000000 0.000000 -9.769600 6.385900 8.753700 9.728872 6.333915 -0.835081 65.839513 -16.224411 45.798730 -21.884695 28.525798 -8.560486 1.326693 4.239703 -3.823533 -14.226549 -24.333194 7.693400 7.125000 0.000000 0.000000 16.651800 -58.528000 -5.608200 
17.185335 17.717131 -26.721919 4.553229 -43.404795 1.526083 1.126915 1.112003 1.099049 -16.414377 -9.679920 -13.334230 -0.498176 9.947505 27.399144 -1.823437 8.536142 3.709080 0.049500 -1.436200 -3.949800 -4.887828 -1.830059 0.278478 16.227024 16.884690 -8.151915 -0.340788 -9.642599 27.578182 4.748449 -17.015863 -14.234621 -0.297300 -3.505900 9.690500 -2.790223 1.823872 2.630683 0.834402 1.629061 -0.512759 0.547811 1.482265 -9.575346 -2.227802 5.595584 -4.886219 1.943881 7.074411 8.931554 -2.498600 3.673800 3.836000 -6.692843 -5.441052 -1.049752 -80.286934 3.174335 21.295629 13.464788 -17.847479 -3.671353 -1.274203 1.357890 -15.112432 12.118533 -22.124329 -5.304200 -7.125000 0.000000 0.000000 -10.026800 6.011400 9.064900 9.726724 6.294347 -0.839478 65.761758 -16.381047 45.946863 -21.884544 28.540159 -8.565300 1.316309 4.249412 -3.989552 -14.231075 -24.339695 7.699800 7.125000 0.000000 0.000000 16.652400 -58.541100 -5.613600 
17.183663 17.717654 -26.724010 4.054531 -43.331757 1.961931 1.142408 1.092113 1.082132 -15.962542 -9.708318 -13.530365 -0.497754 9.946843 27.410355 -1.425936 7.764074 4.227034 0.005000 0.456900 1.255600 -4.888538 -1.808154 0.284256 16.625461 17.054638 -8.137680 -0.309190 -9.625839 27.497678 4.709139 -16.955326 -14.373731 -0.449700 -4.302400 11.928900 -2.507582 1.806348 2.639369 0.902693 1.612974 -0.564251 0.525787 1.470666 -9.702127 -2.101359 5.608934 -4.777361 1.885822 7.067195 8.850872 -2.551100 3.669100 3.796900 -6.677056 -5.416679 -1.059093 -80.449321 3.352558 20.724972 13.475543 -17.881757 -3.695997 -1.185342 1.408113 -14.497924 11.565231 -22.335539 -5.085200 -7.125000 0.000000 0.000000 -10.427300 5.854200 9.471200 9.722286 6.254624 -0.857537 65.828983 -16.582354 45.847762 -21.886939 28.552007 -8.573440 1.344912 4.274305 -4.071095 -14.493544 -24.567858 7.911600 7.125000 0.000000 0.000000 16.495600 -58.842000 -5.678700 
